<svg id="Layer_1" data-name="Layer 1" xmlns="http://www.w3.org/2000/svg" viewBox="0 0 49.26 40.03"><defs><style>.cls-1{fill:#fff;}</style></defs><title>if_03-twitter_104501</title><path class="cls-1" d="M52.84,15.06A20.11,20.11,0,0,1,47,16.66a10.12,10.12,0,0,0,4.44-5.59,20.23,20.23,0,0,1-6.42,2.45,10.12,10.12,0,0,0-17.22,9.22A28.7,28.7,0,0,1,7,12.18a10.12,10.12,0,0,0,3.13,13.49A10.08,10.08,0,0,1,5.55,24.4s0,.08,0,.13a10.11,10.11,0,0,0,8.11,9.91A10.16,10.16,0,0,1,11,34.8a10,10,0,0,1-1.9-.18,10.12,10.12,0,0,0,9.44,7,20.39,20.39,0,0,1-15,4.19,28.6,28.6,0,0,0,15.49,4.54c18.59,0,28.76-15.4,28.76-28.76q0-.66,0-1.31A20.47,20.47,0,0,0,52.84,15.06Z" transform="translate(-3.57 -10.33)"/></svg>